<mxfile host="app.diagrams.net" modified="2022-12-07T06:24:10.292Z" agent="5.0 (Windows NT 10.0; Win64; x64) AppleWebKit/537.36 (KHTML, like Gecko) Chrome/108.0.0.0 Safari/537.36" version="20.6.0" etag="GzZtQiG4HlGd4l3i9fEy" type="github">
  <diagram id="d1jQflfKN0uAdyGCnLyi" name="第 1 页">
    <mxGraphModel dx="1185" dy="662" grid="1" gridSize="10" guides="1" tooltips="1" connect="1" arrows="1" fold="1" page="1" pageScale="1" pageWidth="827" pageHeight="1169" math="0" shadow="0">
      <root>
        <mxCell id="0" />
        <mxCell id="1" parent="0" />
        <mxCell id="ZLOERHzJFg0DGiNdDyd4-3" value="" style="edgeStyle=orthogonalEdgeStyle;rounded=0;orthogonalLoop=1;jettySize=auto;html=1;fontSize=12;" edge="1" parent="1" source="ZLOERHzJFg0DGiNdDyd4-1" target="ZLOERHzJFg0DGiNdDyd4-2">
          <mxGeometry relative="1" as="geometry" />
        </mxCell>
        <mxCell id="ZLOERHzJFg0DGiNdDyd4-1" value="&lt;font style=&quot;font-size: 12px;&quot;&gt;新申请（0）&lt;/font&gt;" style="rounded=0;whiteSpace=wrap;html=1;" vertex="1" parent="1">
          <mxGeometry x="40" y="260" width="110" height="40" as="geometry" />
        </mxCell>
        <mxCell id="ZLOERHzJFg0DGiNdDyd4-5" value="" style="edgeStyle=orthogonalEdgeStyle;rounded=0;orthogonalLoop=1;jettySize=auto;html=1;fontSize=12;" edge="1" parent="1" source="ZLOERHzJFg0DGiNdDyd4-2" target="ZLOERHzJFg0DGiNdDyd4-4">
          <mxGeometry relative="1" as="geometry" />
        </mxCell>
        <mxCell id="ZLOERHzJFg0DGiNdDyd4-7" style="edgeStyle=orthogonalEdgeStyle;rounded=0;orthogonalLoop=1;jettySize=auto;html=1;entryX=0;entryY=0.5;entryDx=0;entryDy=0;fontSize=12;" edge="1" parent="1" source="ZLOERHzJFg0DGiNdDyd4-2" target="ZLOERHzJFg0DGiNdDyd4-6">
          <mxGeometry relative="1" as="geometry" />
        </mxCell>
        <mxCell id="ZLOERHzJFg0DGiNdDyd4-2" value="等待信审结果（1001）" style="whiteSpace=wrap;html=1;rounded=0;" vertex="1" parent="1">
          <mxGeometry x="210" y="255" width="120" height="50" as="geometry" />
        </mxCell>
        <mxCell id="ZLOERHzJFg0DGiNdDyd4-9" value="" style="edgeStyle=orthogonalEdgeStyle;rounded=0;orthogonalLoop=1;jettySize=auto;html=1;fontSize=12;" edge="1" parent="1" source="ZLOERHzJFg0DGiNdDyd4-4" target="ZLOERHzJFg0DGiNdDyd4-8">
          <mxGeometry relative="1" as="geometry" />
        </mxCell>
        <mxCell id="ZLOERHzJFg0DGiNdDyd4-4" value="申请通过，未放款（1002）" style="whiteSpace=wrap;html=1;rounded=0;" vertex="1" parent="1">
          <mxGeometry x="410" y="255" width="120" height="50" as="geometry" />
        </mxCell>
        <mxCell id="ZLOERHzJFg0DGiNdDyd4-6" value="信审失败（1004）" style="whiteSpace=wrap;html=1;rounded=0;fontSize=12;" vertex="1" parent="1">
          <mxGeometry x="410" y="330" width="120" height="50" as="geometry" />
        </mxCell>
        <mxCell id="ZLOERHzJFg0DGiNdDyd4-11" value="" style="edgeStyle=orthogonalEdgeStyle;rounded=0;orthogonalLoop=1;jettySize=auto;html=1;fontSize=12;" edge="1" parent="1" source="ZLOERHzJFg0DGiNdDyd4-8" target="ZLOERHzJFg0DGiNdDyd4-10">
          <mxGeometry relative="1" as="geometry" />
        </mxCell>
        <mxCell id="ZLOERHzJFg0DGiNdDyd4-15" style="edgeStyle=orthogonalEdgeStyle;rounded=0;orthogonalLoop=1;jettySize=auto;html=1;entryX=0;entryY=0.5;entryDx=0;entryDy=0;fontSize=12;" edge="1" parent="1" source="ZLOERHzJFg0DGiNdDyd4-8" target="ZLOERHzJFg0DGiNdDyd4-12">
          <mxGeometry relative="1" as="geometry" />
        </mxCell>
        <mxCell id="ZLOERHzJFg0DGiNdDyd4-16" style="edgeStyle=orthogonalEdgeStyle;rounded=0;orthogonalLoop=1;jettySize=auto;html=1;entryX=0;entryY=0.5;entryDx=0;entryDy=0;fontSize=12;" edge="1" parent="1" source="ZLOERHzJFg0DGiNdDyd4-8" target="ZLOERHzJFg0DGiNdDyd4-13">
          <mxGeometry relative="1" as="geometry" />
        </mxCell>
        <mxCell id="ZLOERHzJFg0DGiNdDyd4-8" value="等待放款处理（2001）" style="whiteSpace=wrap;html=1;rounded=0;" vertex="1" parent="1">
          <mxGeometry x="610" y="255" width="120" height="50" as="geometry" />
        </mxCell>
        <mxCell id="ZLOERHzJFg0DGiNdDyd4-10" value="已放款，等待还款（2002）" style="whiteSpace=wrap;html=1;rounded=0;" vertex="1" parent="1">
          <mxGeometry x="810" y="255" width="120" height="50" as="geometry" />
        </mxCell>
        <mxCell id="ZLOERHzJFg0DGiNdDyd4-12" value="放款失败（2003）" style="whiteSpace=wrap;html=1;rounded=0;fontSize=12;" vertex="1" parent="1">
          <mxGeometry x="810" y="340" width="120" height="50" as="geometry" />
        </mxCell>
        <mxCell id="ZLOERHzJFg0DGiNdDyd4-13" value="等待人工放款（2004）" style="whiteSpace=wrap;html=1;rounded=0;fontSize=12;" vertex="1" parent="1">
          <mxGeometry x="810" y="430" width="120" height="50" as="geometry" />
        </mxCell>
      </root>
    </mxGraphModel>
  </diagram>
</mxfile>
